PathFileType	4	(X/Y/Z)	/Users/itak/Documents/Research/Walk-IL/dataset/trc/00264_00009.trc
DataRate	CameraRate	NumFrames	NumMarkers	Units	OrigDataRate	OrigDataStartFrame	OrigNumFrames
100.000000	100.000000	4	53	mm	100.000000	183	488
Frame#	Time	RPSI			LPSI			L3			STRN			T10			C7			CLAV			RBAK			LBAK			LSHO			LUPA			LAEL			LAOL			LWTS			LWPS			LFRA			LIFD			LHPS			LHTS			RSHO			RUPA			RAEL			RAOL			RWTS			RWPS			RFRA			RIFD			RHTS			RHPS			RBHD			LFHD			RFHD			LBHD			LHIP			RHIP			RASI			LASI			LKNE			LTHI			LANK			LTIP			LTOE			LMT1			LMT5			LHEE			RKNE			RTHI			RANK			RTIP			RTOE			RMT1			RMT5			RHEE			
		X1	Y1	Z1	X2	Y2	Z2	X3	Y3	Z3	X4	Y4	Z4	X5	Y5	Z5	X6	Y6	Z6	X7	Y7	Z7	X8	Y8	Z8	X9	Y9	Z9	X10	Y10	Z10	X11	Y11	Z11	X12	Y12	Z12	X13	Y13	Z13	X14	Y14	Z14	X15	Y15	Z15	X16	Y16	Z16	X17	Y17	Z17	X18	Y18	Z18	X19	Y19	Z19	X20	Y20	Z20	X21	Y21	Z21	X22	Y22	Z22	X23	Y23	Z23	X24	Y24	Z24	X25	Y25	Z25	X26	Y26	Z26	X27	Y27	Z27	X28	Y28	Z28	X29	Y29	Z29	X30	Y30	Z30	X31	Y31	Z31	X32	Y32	Z32	X33	Y33	Z33	X34	Y34	Z34	X35	Y35	Z35	X36	Y36	Z36	X37	Y37	Z37	X38	Y38	Z38	X39	Y39	Z39	X40	Y40	Z40	X41	Y41	Z41	X42	Y42	Z42	X43	Y43	Z43	X44	Y44	Z44	X45	Y45	Z45	X46	Y46	Z46	X47	Y47	Z47	X48	Y48	Z48	X49	Y49	Z49	X50	Y50	Z50	X51	Y51	Z51	X52	Y52	Z52	X53	Y53	Z53	

184	1.83	-1045.720947265625	1038.873046875	704.5276489257812	-1103.802124023438	1034.141357421875	598.5511474609375	-1084.248291015625	1123.27978515625	640.0167846679688	-862.8397827148438	1299.890502929688	509.1802062988281	-1077.910400390625	1250.6435546875	644.9973754882812	-1015.69091796875	1509.192993164062	606.9340209960938	-878.6187744140625	1418.808471679688	522.9386596679688	-1048.223876953125	1372.112915039062	709.1234741210938	-1093.327026367188	1474.755615234375	524.7911987304688	-1047.267456054688	1473.97021484375	429.5812072753906	-1124.898803710938	1359.202392578125	383.1080627441406	-1148.434448242188	1150.372924804688	360.2018127441406	-1177.53515625	1137.017700195312	441.3476867675781	-1033.609008789062	921.3764038085938	350.8186950683594	-1101.8837890625	900.3436889648438	304.6484069824219	-1138.17431640625	1042.887451171875	336.3412170410156	-1021.788452148438	730.409423828125	344.4562683105469	-1079.965209960938	815.0650024414062	297.8785400390625	-1012.926208496094	823.26806640625	311.2413330078125	-881.4012451171875	1464.143676757812	721.8733520507812	-865.300048828125	1400.504028320312	789.5552978515625	-858.6115112304688	1122.322265625	844.5067749023438	-932.2879028320312	1113.234375	783.7979736328125	-759.396728515625	906.8790893554688	743.881103515625	-771.166259765625	893.230712890625	826.6082153320312	-827.8045654296875	1054.24658203125	843.679443359375	-735.9712524414062	718.4501342773438	731.4727783203125	-706.087158203125	792.0250244140625	738.3263549804688	-726.1775512695312	789.152099609375	808.1969604492188	-947.4849853515625	1662.030883789062	625.5322875976562	-824.5324096679688	1699.754150390625	437.5275268554688	-772.0079345703125	1698.977905273438	522.7888793945312	-978.3214111328125	1667.65478515625	488.1687622070312	-1079.002807617188	966.6970825195312	427.8798828125	-905.7677001953125	1007.459594726562	750.4338989257812	-839.6446533203125	1045.8564453125	671.00439453125	-970.1467895507812	1015.174194335938	422.4938659667969	-927.04150390625	496.2168884277344	395.6122741699219	-971.7182006835938	635.1934204101562	393.6828308105469	-1250.906616210938	188.8644256591797	584.2894287109375	-1079.143310546875	349.7044067382812	477.1857299804688	-1089.247924804688	55.6471061706543	529.2366943359375	-1113.323974609375	85.88062286376953	599.0465698242188	-1183.77490234375	106.9976577758789	513.91259765625	-1255.3623046875	229.5498352050781	652.4760131835938	-840.8827514648438	518.0753784179688	681.5109252929688	-831.7562255859375	785.377685546875	723.4176025390625	-947.4313354492188	37.63754272460938	731.4273681640625	-845.0304565429688	394.4663696289062	668.704345703125	-781.1757202148438	46.4244270324707	590.5408325195312	-851.9828491210938	42.6016731262207	579.9365234375	-839.1016235351562	37.62691497802734	701.3281860351562	-1029.451538085938	37.56423950195312	709.1096801757812	
185	1.84	-1038.980224609375	1039.262939453125	703.6017456054688	-1098.379516601562	1034.622680664062	598.4105834960938	-1078.050903320312	1123.816040039062	639.7821655273438	-858.06787109375	1300.334838867188	506.1846313476562	-1071.599609375	1251.152221679688	644.9539184570312	-1009.49365234375	1509.620239257812	606.1494140625	-873.5670166015625	1419.272827148438	520.1752319335938	-1040.697875976562	1372.57421875	708.6868896484375	-1088.097412109375	1475.28369140625	524.9301147460938	-1043.490478515625	1474.55859375	429.159423828125	-1121.84619140625	1359.829345703125	383.8070068359375	-1145.726928710938	1150.969482421875	361.4031982421875	-1173.58154296875	1137.58203125	442.9808044433594	-1030.115600585938	922.396240234375	350.2813720703125	-1099.168212890625	901.19287109375	305.0772705078125	-1135.475952148438	1043.515380859375	337.3732299804688	-1018.2626953125	731.4269409179688	343.7079162597656	-1077.128295898438	816.1473999023438	297.5843200683594	-1009.952697753906	824.2796630859375	310.333740234375	-873.663818359375	1464.503295898438	719.155029296875	-856.65283203125	1400.924926757812	786.6172485351562	-848.8135986328125	1122.779663085938	841.6244506835938	-923.100341796875	1113.44580078125	781.6607666015625	-750.0901489257812	907.478271484375	740.2974243164062	-760.9653930664062	893.9906616210938	823.1875610351562	-817.8489990234375	1054.85498046875	840.5662841796875	-726.2960815429688	719.0274658203125	728.2042236328125	-696.6801147460938	792.662841796875	734.510009765625	-715.8255615234375	790.0374755859375	804.5910034179688	-940.6266479492188	1662.503051757812	623.7120361328125	-819.91796875	1699.776123046875	434.203369140625	-766.3154296875	1698.839111328125	518.8153686523438	-973.164306640625	1668.222900390625	486.8147583007812	-1075.315185546875	967.634765625	427.2304382324219	-898.6409912109375	1007.50927734375	748.1784057617188	-833.3111572265625	1045.915649414062	668.1475830078125	-966.5281982421875	1015.961975097656	421.1319274902344	-917.3652954101562	498.9148864746094	390.6119689941406	-964.3665771484375	637.3900146484375	389.9215393066406	-1232.053588867188	183.2185363769531	581.62646484375	-1065.612915039062	348.828125	473.4443969726562	-1067.21044921875	55.8671989440918	523.1472778320312	-1091.336059570312	84.27164459228516	593.6690673828125	-1163.5361328125	103.8804626464844	509.663330078125	-1236.8427734375	223.0087738037109	650.4331665039062	-838.9518432617188	517.5614624023438	680.7648315429688	-826.5057373046875	784.9664306640625	720.9849853515625	-947.4508056640625	37.70024871826172	731.3967895507812	-843.9926147460938	394.0557250976562	668.3037109375	-781.1712646484375	46.41108703613281	590.5064697265625	-851.978515625	42.55178451538086	579.8970947265625	-839.11376953125	37.66437530517578	701.2669067382812	-1029.41552734375	37.57894134521484	709.0494384765625	
186	1.85	-1032.279541015625	1039.647338867188	702.5739135742188	-1092.966430664062	1035.088134765625	598.164794921875	-1071.827392578125	1124.315795898438	639.4209594726562	-853.2898559570312	1300.749633789062	503.1178894042969	-1065.267700195312	1251.611450195312	644.7918701171875	-1003.291259765625	1510.01318359375	605.2412109375	-868.5032348632812	1419.702026367188	517.3341674804688	-1033.14404296875	1372.992065429688	708.1297607421875	-1082.81494140625	1475.77294921875	524.9606323242188	-1039.661010742188	1475.090209960938	428.6542663574219	-1118.75	1360.4169921875	384.4380798339844	-1143.055053710938	1151.537475585938	362.5623474121094	-1169.683227539062	1138.144897460938	444.5560913085938	-1026.713134765625	923.3577270507812	349.7771606445312	-1096.558227539062	901.97607421875	305.538330078125	-1132.844604492188	1044.108764648438	338.3885498046875	-1014.929321289062	732.3939208984375	343.0928039550781	-1074.40283203125	817.1156005859375	297.3268432617188	-1007.131652832031	825.1962280273438	309.5023193359375	-865.9421997070312	1464.84326171875	716.32080078125	-848.0336303710938	1401.327392578125	783.5609741210938	-839.1283569335938	1123.2158203125	838.6259765625	-913.9786987304688	1113.654907226562	779.3530883789062	-740.9140014648438	908.0524291992188	736.5916748046875	-750.9179077148438	894.7113037109375	819.6246948242188	-808.0140991210938	1055.430297851562	837.335205078125	-716.7476196289062	719.5992431640625	724.76416015625	-687.3947143554688	793.2859497070312	730.5599365234375	-705.6427612304688	790.878173828125	800.8375854492188	-933.80810546875	1662.919799804688	621.7877197265625	-815.3385620117188	1699.79296875	430.8234558105469	-760.6832275390625	1698.7109375	514.7843627929688	-968.024169921875	1668.7353515625	485.3692016601562	-1071.655517578125	968.5187377929688	426.5611877441406	-891.6246948242188	1007.546752929688	745.8798828125	-827.0084838867188	1045.926879882812	665.2286987304688	-962.8865356445312	1016.690063476562	419.7198486328125	-907.9724731445312	501.6176452636719	385.5906066894531	-957.2291259765625	639.598388671875	386.0924987792969	-1212.588012695312	176.6725311279297	578.2315673828125	-1052.003540039062	347.5032043457031	469.3686828613281	-1044.386474609375	55.79442977905273	516.6219482421875	-1068.65283203125	82.33526611328125	587.7635498046875	-1142.562133789062	100.0809020996094	504.7846069335938	-1217.902587890625	215.5536499023438	647.61962890625	-837.1377563476562	517.060546875	680.11376953125	-821.3169555664062	784.56689453125	718.490234375	-947.4720458984375	37.75204086303711	731.3741455078125	-843.0352783203125	393.6824645996094	667.9970703125	-781.1723022460938	46.39816665649414	590.4829711914062	-851.9649047851562	42.51199340820312	579.8639526367188	-839.1187133789062	37.68992233276367	701.21875	-1029.397094726562	37.6047477722168	709.001708984375	
187	1.86	-1025.6279296875	1040.016723632812	701.4522705078125	-1087.566284179688	1035.527221679688	597.8164672851562	-1065.582885742188	1124.77294921875	638.9401245117188	-848.4986572265625	1301.117431640625	499.982421875	-1058.909057617188	1252.017700195312	644.5057983398438	-997.0723266601562	1510.367065429688	604.1976318359375	-863.4180297851562	1420.079711914062	514.4158325195312	-1025.56201171875	1373.361206054688	707.4461059570312	-1077.488525390625	1476.21875	524.8845825195312	-1035.765869140625	1475.552856445312	428.0577392578125	-1115.594482421875	1360.953369140625	384.9879455566406	-1140.408935546875	1152.066284179688	363.660888671875	-1165.84619140625	1138.699829101562	446.0509338378906	-1023.40966796875	924.24365234375	349.3115844726562	-1094.049926757812	902.6703491210938	306.0300598144531	-1130.274780273438	1044.654296875	339.3732604980469	-1011.755859375	733.3095703125	342.6188354492188	-1071.778076171875	817.9420166015625	297.1349182128906	-1004.4482421875	826.0113525390625	308.7559509277344	-858.2338256835938	1465.152221679688	713.3709106445312	-839.4413452148438	1401.697998046875	780.3882446289062	-829.5519409179688	1123.621459960938	835.5223999023438	-904.9326171875	1113.847534179688	776.9109497070312	-731.877197265625	908.5914306640625	732.7568359375	-741.0269165039062	895.3765869140625	815.9137573242188	-798.2949829101562	1055.958740234375	833.9905395507812	-707.3297729492188	720.1597900390625	721.1234741210938	-678.212890625	793.8967895507812	726.4517822265625	-695.6331176757812	791.6582641601562	796.9180297851562	-927.0319213867188	1663.267700195312	619.7615966796875	-810.7977294921875	1699.806396484375	427.3889770507812	-755.1171875	1698.598876953125	510.6961059570312	-962.902099609375	1669.17529296875	483.8284301757812	-1068.03369140625	969.3372192382812	425.8787536621094	-884.7206420898438	1007.573425292969	743.541748046875	-820.7267456054688	1045.889038085938	662.2415771484375	-959.2275390625	1017.347473144531	418.2505493164062	-898.87744140625	504.3051147460938	380.5657958984375	-950.32080078125	641.7921752929688	382.2160949707031	-1192.5546875	169.3589782714844	574.1030883789062	-1038.339721679688	345.7822570800781	464.9613342285156	-1020.949462890625	55.52231979370117	509.4824829101562	-1045.384399414062	80.145263671875	581.1854858398438	-1120.970336914062	95.79881286621094	499.1669616699219	-1198.515258789062	207.2845306396484	644.0506591796875	-835.424072265625	516.5671997070312	679.5516357421875	-816.1920776367188	784.182373046875	715.9423217773438	-947.494384765625	37.79378509521484	731.357666015625	-842.14208984375	393.3394775390625	667.7720336914062	-781.1778564453125	46.38557052612305	590.47119140625	-851.9409790039062	42.48371124267578	579.8370361328125	-839.116455078125	37.70332336425781	701.1842041015625	-1029.401489257812	37.64760971069336	708.972412109375	
